<svg xmlns="http://www.w3.org/2000/svg">
  <symbol id="video" viewBox="0 0 24 24">
    <path fill="currentColor"
      d="M12,2.75 C13.859,2.75 15.644,2.934 17.303,3.272 L17.431,3.298 C19.325,3.683 20.588,3.94 21.676,5.339 C22.752,6.723 22.751,8.327 22.75,10.812 L22.75,10.812 L22.75,11.036 L22.75,12.964 L22.75,13.188 L22.75,13.188 C22.751,15.673 22.752,17.277 21.676,18.661 C20.588,20.06 19.325,20.317 17.431,20.702 L17.303,20.728 C15.644,21.066 13.859,21.25 12,21.25 C10.142,21.25 8.356,21.066 6.697,20.728 L6.57,20.702 C4.675,20.317 3.413,20.06 2.325,18.661 C1.249,17.277 1.249,15.673 1.25,13.188 L1.25,12.964 L1.25,11.036 L1.25,10.812 C1.249,8.327 1.249,6.723 2.325,5.339 C3.413,3.94 4.675,3.683 6.57,3.298 L6.697,3.272 C8.356,2.934 10.142,2.75 12,2.75 Z M6.996,4.742 C4.944,5.16 4.23,5.333 3.509,6.26 C2.784,7.192 2.75,8.239 2.75,11.036 L2.75,12.964 C2.75,15.761 2.784,16.808 3.509,17.74 C4.23,18.667 4.944,18.84 6.996,19.258 C8.554,19.576 10.239,19.75 12,19.75 C13.761,19.75 15.446,19.576 17.004,19.258 C19.056,18.84 19.77,18.667 20.492,17.74 C21.216,16.808 21.25,15.761 21.25,12.964 L21.25,11.036 C21.25,8.239 21.216,7.192 20.492,6.26 C19.77,5.333 19.056,5.16 17.004,4.742 C15.446,4.424 13.761,4.25 12,4.25 C10.239,4.25 8.554,4.424 6.996,4.742 Z M13.848,9.142 C14.603,9.558 15.226,9.901 15.674,10.219 C16.123,10.538 16.55,10.933 16.691,11.509 C16.77,11.832 16.77,12.168 16.691,12.491 C16.55,13.067 16.123,13.462 15.674,13.781 C15.226,14.099 14.603,14.443 13.848,14.858 L13.767,14.903 C12.942,15.358 12.268,15.729 11.713,15.959 C11.149,16.192 10.571,16.341 9.983,16.187 C9.649,16.099 9.335,15.944 9.067,15.727 C8.574,15.329 8.4,14.759 8.324,14.185 C8.25,13.629 8.25,12.911 8.25,12.054 L8.25,11.947 C8.25,11.089 8.25,10.371 8.324,9.815 C8.4,9.241 8.574,8.671 9.067,8.273 C9.335,8.056 9.649,7.901 9.983,7.813 C10.571,7.659 11.149,7.808 11.713,8.041 C12.268,8.271 12.942,8.642 13.767,9.097 Z M10.363,9.264 C10.226,9.3 10.106,9.362 10.01,9.439 C9.964,9.476 9.869,9.575 9.811,10.013 C9.752,10.458 9.75,11.075 9.75,12 C9.75,12.925 9.752,13.542 9.811,13.987 C9.869,14.425 9.964,14.524 10.01,14.561 C10.106,14.639 10.226,14.7 10.363,14.736 C10.47,14.764 10.67,14.767 11.139,14.573 C11.607,14.379 12.208,14.049 13.083,13.567 C13.889,13.123 14.436,12.82 14.806,12.558 C15.184,12.29 15.226,12.164 15.234,12.134 C15.256,12.046 15.256,11.955 15.234,11.866 C15.226,11.836 15.184,11.71 14.806,11.442 C14.436,11.18 13.889,10.877 13.083,10.433 C12.208,9.951 11.607,9.621 11.139,9.427 C10.67,9.233 10.47,9.236 10.363,9.264 Z" />
  </symbol>
  <symbol id="unlink" viewBox="0 0 24 24">
    <path fill="currentColor"
      d="M11.47,4.014 C13.821,1.662 17.634,1.662 19.986,4.014 C22.338,6.366 22.338,10.179 19.986,12.53 L17.377,15.14 C17.084,15.433 16.609,15.433 16.316,15.14 C16.023,14.847 16.023,14.372 16.316,14.079 L18.926,11.47 C20.691,9.704 20.691,6.84 18.926,5.074 C17.16,3.309 14.296,3.309 12.53,5.074 L9.921,7.684 C9.628,7.977 9.153,7.977 8.86,7.684 C8.567,7.391 8.567,6.916 8.86,6.623 Z M7.684,8.86 C7.977,9.153 7.977,9.628 7.684,9.921 L5.074,12.53 C3.309,14.296 3.309,17.16 5.074,18.926 C6.84,20.691 9.704,20.691 11.47,18.926 L14.079,16.316 C14.372,16.023 14.847,16.023 15.14,16.316 C15.433,16.609 15.433,17.084 15.14,17.377 L12.53,19.986 C10.179,22.338 6.366,22.338 4.014,19.986 C1.662,17.634 1.662,13.821 4.014,11.47 L6.623,8.86 C6.916,8.567 7.391,8.567 7.684,8.86 Z M17,19.171 C17.414,19.171 17.75,19.507 17.75,19.921 L17.75,22 C17.75,22.414 17.414,22.75 17,22.75 C16.586,22.75 16.25,22.414 16.25,22 L16.25,19.921 C16.25,19.507 16.586,19.171 17,19.171 Z M2,6.25 L4.079,6.25 C4.493,6.25 4.829,6.586 4.829,7 C4.829,7.414 4.493,7.75 4.079,7.75 L2,7.75 C1.586,7.75 1.25,7.414 1.25,7 C1.25,6.586 1.586,6.25 2,6.25 Z M7.75,2 L7.75,4.079 C7.75,4.493 7.414,4.829 7,4.829 C6.586,4.829 6.25,4.493 6.25,4.079 L6.25,2 C6.25,1.586 6.586,1.25 7,1.25 C7.414,1.25 7.75,1.586 7.75,2 Z M19.171,17 C19.171,16.586 19.507,16.25 19.921,16.25 L22,16.25 C22.414,16.25 22.75,16.586 22.75,17 C22.75,17.414 22.414,17.75 22,17.75 L19.921,17.75 C19.507,17.75 19.171,17.414 19.171,17 Z" />
  </symbol>
  <symbol id="underline" viewBox="0 0 24 24">
    <path fill="currentColor"
      d="M6.531,3 L6.531,11.5 C6.531,14.676 9.106,17.25 12.281,17.25 C15.457,17.25 18.031,14.676 18.031,11.5 L18.031,3 C18.031,2.586 18.367,2.25 18.781,2.25 C19.195,2.25 19.531,2.586 19.531,3 L19.531,11.5 C19.531,15.504 16.285,18.75 12.281,18.75 C8.277,18.75 5.031,15.504 5.031,11.5 L5.031,3 C5.031,2.586 5.367,2.25 5.781,2.25 C6.195,2.25 6.531,2.586 6.531,3 Z M3.281,20.25 L21.281,20.25 C21.695,20.25 22.031,20.586 22.031,21 C22.031,21.414 21.695,21.75 21.281,21.75 L3.281,21.75 C2.867,21.75 2.531,21.414 2.531,21 C2.531,20.586 2.867,20.25 3.281,20.25 Z" />
  </symbol>
  <symbol id="ul" viewBox="0 0 24 24">
    <path fill="currentColor"
      d="M9,4.25 L21,4.25 C21.414,4.25 21.75,4.586 21.75,5 C21.75,5.414 21.414,5.75 21,5.75 L9,5.75 C8.586,5.75 8.25,5.414 8.25,5 C8.25,4.586 8.586,4.25 9,4.25 Z M8.25,12 C8.25,11.586 8.586,11.25 9,11.25 L21,11.25 C21.414,11.25 21.75,11.586 21.75,12 C21.75,12.414 21.414,12.75 21,12.75 L9,12.75 C8.586,12.75 8.25,12.414 8.25,12 Z M8.25,19 C8.25,18.586 8.586,18.25 9,18.25 L21,18.25 C21.414,18.25 21.75,18.586 21.75,19 C21.75,19.414 21.414,19.75 21,19.75 L9,19.75 C8.586,19.75 8.25,19.414 8.25,19 Z M3,4.25 L5,4.25 C5.414,4.25 5.75,4.586 5.75,5 C5.75,5.414 5.414,5.75 5,5.75 L3,5.75 C2.586,5.75 2.25,5.414 2.25,5 C2.25,4.586 2.586,4.25 3,4.25 Z M3,18.25 L5,18.25 C5.414,18.25 5.75,18.586 5.75,19 C5.75,19.414 5.414,19.75 5,19.75 L3,19.75 C2.586,19.75 2.25,19.414 2.25,19 C2.25,18.586 2.586,18.25 3,18.25 Z M3,11.25 L5,11.25 C5.414,11.25 5.75,11.586 5.75,12 C5.75,12.414 5.414,12.75 5,12.75 L3,12.75 C2.586,12.75 2.25,12.414 2.25,12 C2.25,11.586 2.586,11.25 3,11.25 Z" />
  </symbol>
  <symbol id="table" viewBox="0 0 24 24">
    <path fill="currentColor"
      d="M12.393,1.75 L12.393,1.75 C14.584,1.75 16.305,1.75 17.648,1.931 C19.025,2.116 20.117,2.503 20.975,3.361 C21.833,4.219 22.22,5.311 22.405,6.688 C22.586,8.031 22.586,9.752 22.586,11.943 L22.586,12.057 C22.586,14.248 22.586,15.969 22.405,17.312 C22.22,18.689 21.833,19.781 20.975,20.639 C20.117,21.497 19.025,21.884 17.648,22.069 C16.305,22.25 14.584,22.25 12.393,22.25 L12.279,22.25 C10.088,22.25 8.367,22.25 7.024,22.069 C5.647,21.884 4.555,21.497 3.697,20.639 C2.839,19.781 2.452,18.689 2.267,17.312 C2.086,15.969 2.086,14.248 2.086,12.057 L2.086,11.943 C2.086,9.752 2.086,8.031 2.267,6.688 C2.452,5.311 2.839,4.219 3.697,3.361 C4.555,2.503 5.647,2.116 7.024,1.931 C8.367,1.75 10.088,1.75 12.279,1.75 L12.393,1.75 Z M12.336,8.25 L21.035,8.25 C21.01,7.747 20.974,7.296 20.919,6.888 C20.756,5.678 20.447,4.955 19.914,4.422 C19.381,3.889 18.658,3.58 17.448,3.417 C16.216,3.252 14.596,3.25 12.336,3.25 C10.076,3.25 8.456,3.252 7.224,3.417 C6.014,3.58 5.291,3.889 4.758,4.422 C4.224,4.955 3.916,5.678 3.753,6.888 C3.698,7.296 3.661,7.747 3.637,8.25 L12.336,8.25 Z M13.086,20.75 C14.961,20.747 16.357,20.729 17.448,20.583 C18.658,20.42 19.381,20.111 19.914,19.578 C20.346,19.146 20.631,18.59 20.81,17.75 L13.086,17.75 Z M11.586,17.75 L3.862,17.75 C4.041,18.59 4.326,19.146 4.758,19.578 C5.291,20.111 6.014,20.42 7.224,20.583 C8.315,20.729 9.711,20.747 11.586,20.75 Z M13.086,12.25 L21.086,12.25 L21.086,12 C21.086,11.167 21.086,10.422 21.077,9.75 L13.086,9.75 Z M11.586,9.75 L3.595,9.75 C3.586,10.422 3.586,11.167 3.586,12 L3.586,12.25 L11.586,12.25 Z M13.086,16.25 L21.005,16.25 C21.056,15.539 21.075,14.717 21.082,13.75 L13.086,13.75 Z M11.586,13.75 L3.59,13.75 C3.597,14.717 3.615,15.539 3.667,16.25 L11.586,16.25 Z" />
  </symbol>
  <symbol id="row-top-add" viewBox="0 0 24 24">
    <path
      d="M12.279 22.25H12.393C14.584 22.25 16.305 22.25 17.648 22.069C19.025 21.884 20.117 21.497 20.975 20.639C21.833 19.781 22.22 18.689 22.405 17.312C22.586 15.969 22.586 14.248 22.586 12.057V11.943C22.586 9.752 22.586 8.031 22.405 6.688C22.22 5.311 21.833 4.219 20.975 3.361C20.306 2.691 19.49 2.306 18.502 2.082C18.098 1.99 17.696 2.243 17.604 2.647C17.513 3.051 17.766 3.453 18.17 3.545C18.959 3.724 19.494 4.001 19.914 4.422C20.447 4.955 20.756 5.678 20.919 6.888C21.084 8.12 21.086 9.74 21.086 12C21.086 12.833 21.086 13.578 21.077 14.25H3.595C3.586 13.578 3.586 12.833 3.586 12C3.586 9.74 3.588 8.12 3.753 6.888C3.916 5.678 4.224 4.955 4.758 4.422C5.178 4.001 5.713 3.724 6.502 3.545C6.906 3.453 7.159 3.051 7.067 2.647C6.976 2.243 6.574 1.99 6.17 2.082C5.182 2.306 4.366 2.691 3.697 3.361C2.839 4.219 2.452 5.311 2.267 6.688C2.086 8.031 2.086 9.752 2.086 11.943V12.057C2.086 14.248 2.086 15.969 2.267 17.312C2.452 18.689 2.839 19.781 3.697 20.639C4.555 21.497 5.647 21.884 7.024 22.069C8.367 22.25 10.088 22.25 12.279 22.25ZM9.586 15.75H15.086V20.733C14.29 20.75 13.381 20.75 12.336 20.75C11.291 20.75 10.382 20.75 9.586 20.733V15.75ZM13.086 10.5V7.25H16.336C16.75 7.25 17.086 6.914 17.086 6.5C17.086 6.086 16.75 5.75 16.336 5.75H13.086V2.5C13.086 2.086 12.75 1.75 12.336 1.75C11.922 1.75 11.586 2.086 11.586 2.5V5.75H8.336C7.922 5.75 7.586 6.086 7.586 6.5C7.586 6.914 7.922 7.25 8.336 7.25H11.586V10.5C11.586 10.914 11.922 11.25 12.336 11.25C12.75 11.25 13.086 10.914 13.086 10.5ZM16.586 20.669V15.75H21.035C21.01 16.253 20.974 16.704 20.919 17.112C20.756 18.322 20.447 19.045 19.914 19.578C19.381 20.111 18.658 20.42 17.448 20.583C17.18 20.619 16.893 20.647 16.586 20.669ZM8.086 15.75V20.669C7.778 20.647 7.492 20.619 7.224 20.583C6.014 20.42 5.291 20.111 4.758 19.578C4.224 19.045 3.916 18.322 3.753 17.112C3.698 16.704 3.661 16.253 3.637 15.75H8.086Z"
      fill="currentColor" />
  </symbol>
  <symbol id="row-bottom-remove" viewBox="0 0 24 24">
    <path
      d="M22.25 12.279L22.25 12.393C22.25 14.584 22.25 16.305 22.069 17.648C21.884 19.025 21.497 20.117 20.639 20.975C19.97 21.645 19.154 22.03 18.166 22.254C17.762 22.346 17.36 22.093 17.269 21.689C17.177 21.285 17.43 20.883 17.834 20.791C18.623 20.612 19.158 20.335 19.578 19.914C20.111 19.381 20.42 18.658 20.583 17.448C20.748 16.216 20.75 14.596 20.75 12.336C20.75 11.503 20.75 10.757 20.741 10.086L3.259 10.086C3.25 10.757 3.25 11.503 3.25 12.336C3.25 14.596 3.252 16.216 3.417 17.448C3.58 18.658 3.889 19.381 4.422 19.914C4.842 20.335 5.377 20.612 6.166 20.791C6.57 20.883 6.823 21.285 6.731 21.689C6.64 22.093 6.238 22.346 5.834 22.254C4.846 22.03 4.031 21.645 3.361 20.975C2.503 20.117 2.116 19.025 1.931 17.648C1.75 16.305 1.75 14.584 1.75 12.393L1.75 12.279C1.75 10.088 1.75 8.367 1.931 7.024C2.116 5.647 2.503 4.555 3.361 3.697C4.219 2.839 5.311 2.452 6.688 2.267C8.031 2.086 9.752 2.086 11.943 2.086L12.057 2.086C14.248 2.086 15.969 2.086 17.312 2.267C18.689 2.452 19.781 2.839 20.639 3.697C21.497 4.555 21.884 5.647 22.069 7.024C22.25 8.367 22.25 10.088 22.25 12.279ZM9.248 8.586L14.748 8.586L14.748 3.603C13.952 3.586 13.045 3.586 12 3.586C10.954 3.586 10.045 3.586 9.248 3.603L9.248 8.586ZM14.468 22.366L11.998 19.897L9.528 22.366C9.236 22.659 8.761 22.659 8.468 22.366C8.175 22.073 8.175 21.598 8.468 21.306L10.937 18.836L8.468 16.366C8.175 16.073 8.175 15.599 8.468 15.306C8.761 15.013 9.236 15.013 9.528 15.306L11.998 17.775L14.468 15.306C14.761 15.013 15.235 15.013 15.528 15.306C15.821 15.599 15.821 16.073 15.528 16.366L13.059 18.836L15.528 21.306C15.821 21.598 15.821 22.073 15.528 22.366C15.235 22.659 14.761 22.659 14.468 22.366ZM16.248 3.667L16.248 8.586L20.699 8.586C20.675 8.083 20.638 7.632 20.583 7.224C20.42 6.014 20.111 5.291 19.578 4.758C19.045 4.224 18.322 3.916 17.112 3.753C16.843 3.717 16.556 3.689 16.248 3.667ZM7.748 8.586L7.748 3.667C7.441 3.689 7.155 3.717 6.888 3.753C5.678 3.916 4.955 4.224 4.422 4.758C3.889 5.291 3.58 6.014 3.417 7.224C3.362 7.632 3.325 8.083 3.301 8.586L7.748 8.586Z"
      fill="currentColor" />
  </symbol>
  <symbol id="row-bottom-add" viewBox="0 0 24 24">
    <path
      d="M12.279 1.75H12.393C14.584 1.75 16.305 1.75 17.648 1.931C19.025 2.116 20.117 2.503 20.975 3.361C21.833 4.219 22.22 5.311 22.405 6.688C22.586 8.031 22.586 9.752 22.586 11.943V12.057C22.586 14.248 22.586 15.969 22.405 17.312C22.22 18.689 21.833 19.781 20.975 20.639C20.306 21.309 19.49 21.694 18.502 21.918C18.098 22.01 17.696 21.757 17.604 21.353C17.513 20.949 17.766 20.547 18.17 20.455C18.959 20.276 19.494 19.999 19.914 19.578C20.447 19.045 20.756 18.322 20.919 17.112C21.084 15.88 21.086 14.26 21.086 12C21.086 11.167 21.086 10.422 21.077 9.75H3.595C3.586 10.422 3.586 11.167 3.586 12C3.586 14.26 3.588 15.88 3.753 17.112C3.916 18.322 4.224 19.045 4.758 19.578C5.178 19.999 5.713 20.276 6.502 20.455C6.906 20.547 7.159 20.949 7.067 21.353C6.976 21.757 6.574 22.01 6.17 21.918C5.182 21.694 4.366 21.309 3.697 20.639C2.839 19.781 2.452 18.689 2.267 17.312C2.086 15.969 2.086 14.248 2.086 12.057V11.943C2.086 9.752 2.086 8.031 2.267 6.688C2.452 5.311 2.839 4.219 3.697 3.361C4.555 2.503 5.647 2.116 7.024 1.931C8.367 1.75 10.088 1.75 12.279 1.75ZM9.586 8.25H15.086V3.267C14.29 3.25 13.381 3.25 12.336 3.25C11.291 3.25 10.382 3.25 9.586 3.267V8.25ZM13.086 13.5V16.75H16.336C16.75 16.75 17.086 17.086 17.086 17.5C17.086 17.914 16.75 18.25 16.336 18.25H13.086V21.5C13.086 21.914 12.75 22.25 12.336 22.25C11.922 22.25 11.586 21.914 11.586 21.5V18.25H8.336C7.922 18.25 7.586 17.914 7.586 17.5C7.586 17.086 7.922 16.75 8.336 16.75H11.586V13.5C11.586 13.086 11.922 12.75 12.336 12.75C12.75 12.75 13.086 13.086 13.086 13.5ZM16.586 3.331V8.25H21.035C21.01 7.747 20.974 7.296 20.919 6.888C20.756 5.678 20.447 4.955 19.914 4.422C19.381 3.889 18.658 3.58 17.448 3.417C17.18 3.381 16.893 3.353 16.586 3.331ZM8.086 8.25V3.331C7.778 3.353 7.492 3.381 7.224 3.417C6.014 3.58 5.291 3.889 4.758 4.422C4.224 4.955 3.916 5.678 3.753 6.888C3.698 7.296 3.661 7.747 3.637 8.25H8.086Z"
      fill="currentColor" />
  </symbol>
  <symbol id="remove" viewBox="0 0 24 24">
    <path fill="currentColor"
      d="M4.97,4.47 C5.263,4.177 5.737,4.177 6.03,4.47 L12.5,10.939 L18.97,4.47 C19.263,4.177 19.737,4.177 20.03,4.47 C20.323,4.763 20.323,5.237 20.03,5.53 L13.561,12 L20.03,18.47 C20.323,18.763 20.323,19.237 20.03,19.53 C19.737,19.823 19.263,19.823 18.97,19.53 L12.5,13.061 L6.03,19.53 C5.737,19.823 5.263,19.823 4.97,19.53 C4.677,19.237 4.677,18.763 4.97,18.47 L11.439,12 L4.97,5.53 C4.677,5.237 4.677,4.763 4.97,4.47 Z" />
  </symbol>
  <symbol id="quote" viewBox="0 0 24 24">
    <path fill="currentColor"
      d="M6.052,11.25 L6.055,11.25 C6.952,11.25 7.7,11.25 8.294,11.33 C8.922,11.414 9.489,11.6 9.945,12.056 C10.4,12.511 10.586,13.078 10.67,13.705 C10.75,14.3 10.75,15.048 10.75,15.945 L10.75,16.055 C10.75,16.952 10.75,17.7 10.67,18.295 C10.586,18.922 10.4,19.489 9.945,19.944 C9.489,20.4 8.922,20.586 8.294,20.67 C7.7,20.75 6.952,20.75 6.055,20.75 L5.945,20.75 C5.048,20.75 4.3,20.75 3.706,20.67 C3.078,20.586 2.511,20.4 2.055,19.944 C1.6,19.489 1.414,18.922 1.33,18.295 C1.25,17.7 1.25,16.951 1.25,16.052 L1.25,11.863 C1.25,7.836 4.01,4.458 7.777,3.284 C8.172,3.161 8.593,3.382 8.716,3.777 C8.839,4.173 8.619,4.593 8.223,4.716 C5.113,5.685 2.881,8.394 2.756,11.579 C3.049,11.45 3.369,11.375 3.706,11.33 C4.3,11.25 5.048,11.25 5.945,11.25 L6.052,11.25 Z M20.223,4.716 C17.113,5.685 14.881,8.394 14.756,11.579 C15.05,11.45 15.369,11.375 15.705,11.33 C16.3,11.25 17.048,11.25 17.945,11.25 L18.055,11.25 C18.952,11.25 19.7,11.25 20.295,11.33 C20.922,11.414 21.489,11.6 21.944,12.056 C22.4,12.511 22.586,13.078 22.67,13.705 C22.75,14.3 22.75,15.048 22.75,15.945 L22.75,16.055 C22.75,16.952 22.75,17.7 22.67,18.295 C22.586,18.922 22.4,19.489 21.944,19.944 C21.489,20.4 20.922,20.586 20.295,20.67 C19.7,20.75 18.952,20.75 18.055,20.75 L17.945,20.75 C17.048,20.75 16.3,20.75 15.705,20.67 C15.078,20.586 14.511,20.4 14.056,19.944 C13.6,19.489 13.414,18.922 13.33,18.295 C13.25,17.7 13.25,16.952 13.25,16.055 L13.25,11.863 C13.25,7.836 16.01,4.458 19.777,3.284 C20.172,3.161 20.593,3.382 20.716,3.777 C20.839,4.173 20.619,4.593 20.223,4.716 Z M15.116,13.116 C14.986,13.246 14.879,13.444 14.816,13.905 C14.752,14.388 14.75,15.036 14.75,16 C14.75,16.964 14.752,17.612 14.816,18.095 C14.879,18.556 14.986,18.754 15.116,18.884 C15.246,19.014 15.444,19.121 15.905,19.184 C16.388,19.248 17.036,19.25 18,19.25 C18.964,19.25 19.612,19.248 20.095,19.184 C20.556,19.121 20.754,19.014 20.884,18.884 C21.014,18.754 21.121,18.556 21.184,18.095 C21.248,17.612 21.25,16.964 21.25,16 C21.25,15.036 21.248,14.388 21.184,13.905 C21.121,13.444 21.014,13.246 20.884,13.116 C20.754,12.986 20.556,12.879 20.095,12.816 C19.612,12.752 18.964,12.75 18,12.75 C17.036,12.75 16.388,12.752 15.905,12.816 C15.444,12.879 15.246,12.986 15.116,13.116 Z M3.905,12.816 C3.444,12.879 3.246,12.986 3.116,13.116 C2.986,13.246 2.879,13.444 2.817,13.905 C2.752,14.388 2.75,15.036 2.75,16 C2.75,16.964 2.752,17.612 2.817,18.095 C2.879,18.556 2.986,18.754 3.116,18.884 C3.246,19.014 3.444,19.121 3.905,19.184 C4.388,19.248 5.036,19.25 6,19.25 C6.964,19.25 7.612,19.248 8.095,19.184 C8.556,19.121 8.754,19.014 8.884,18.884 C9.014,18.754 9.121,18.556 9.183,18.095 C9.248,17.612 9.25,16.964 9.25,16 C9.25,15.036 9.248,14.388 9.183,13.905 C9.121,13.444 9.014,13.246 8.884,13.116 C8.754,12.986 8.556,12.879 8.095,12.816 C7.612,12.752 6.964,12.75 6,12.75 C5.036,12.75 4.388,12.752 3.905,12.816 Z" />
  </symbol>
  <symbol id="p" viewBox="0 0 24 24">
    <path fill="currentColor"
      d="M10.75,3.75 L10.75,21 C10.75,21.414 10.414,21.75 10,21.75 C9.586,21.75 9.25,21.414 9.25,21 L9.25,12.75 L7.5,12.75 C4.601,12.75 2.25,10.399 2.25,7.5 C2.25,4.601 4.601,2.25 7.5,2.25 L21,2.25 C21.414,2.25 21.75,2.586 21.75,3 C21.75,3.414 21.414,3.75 21,3.75 L15.75,3.75 L15.75,21 C15.75,21.414 15.414,21.75 15,21.75 C14.586,21.75 14.25,21.414 14.25,21 L14.25,3.75 Z M7.5,3.75 C5.429,3.75 3.75,5.429 3.75,7.5 C3.75,9.571 5.429,11.25 7.5,11.25 L9.25,11.25 L9.25,3.75 Z" />
  </symbol>
  <symbol id="ol" viewBox="0 0 24 24">
    <path fill="currentColor"
      d="M4.888,15.759 C4.863,15.754 4.815,15.75 4.5,15.75 L3,15.75 C2.586,15.75 2.25,15.414 2.25,15 C2.25,14.586 2.586,14.25 3,14.25 L4.5,14.25 L4.555,14.25 L4.557,14.25 C4.779,14.25 4.99,14.25 5.181,14.288 C5.954,14.441 6.559,15.046 6.713,15.82 C6.751,16.011 6.75,16.222 6.75,16.445 L6.75,16.5 L6.75,16.555 C6.75,16.778 6.751,16.99 6.713,17.181 C6.559,17.954 5.954,18.559 5.181,18.713 C4.989,18.751 4.778,18.75 4.555,18.75 L4.5,18.75 C4.185,18.75 4.137,18.754 4.112,18.759 C3.934,18.794 3.794,18.934 3.759,19.112 C3.754,19.138 3.75,19.185 3.75,19.5 L3.75,20.25 L6,20.25 C6.414,20.25 6.75,20.586 6.75,21 C6.75,21.414 6.414,21.75 6,21.75 L3.574,21.75 C3.457,21.75 3.304,21.75 3.171,21.732 C3.006,21.71 2.764,21.649 2.558,21.442 C2.351,21.236 2.29,20.994 2.268,20.829 C2.25,20.696 2.25,20.543 2.25,20.426 L2.25,20.4 L2.25,19.5 L2.25,19.445 L2.25,19.445 C2.25,19.222 2.25,19.011 2.288,18.82 C2.441,18.046 3.046,17.441 3.82,17.288 C3.962,17.259 4.115,17.252 4.276,17.25 C4.325,17.25 4.374,17.25 4.424,17.25 L4.445,17.25 L4.5,17.25 C4.815,17.25 4.863,17.246 4.888,17.241 C5.066,17.206 5.206,17.066 5.241,16.888 C5.246,16.863 5.25,16.815 5.25,16.5 C5.25,16.185 5.246,16.138 5.241,16.112 C5.206,15.934 5.066,15.794 4.888,15.759 Z M3,2.25 L4.2,2.25 C4.78,2.25 5.25,2.72 5.25,3.3 L5.25,8.25 L6,8.25 C6.414,8.25 6.75,8.586 6.75,9 C6.75,9.414 6.414,9.75 6,9.75 L3,9.75 C2.586,9.75 2.25,9.414 2.25,9 C2.25,8.586 2.586,8.25 3,8.25 L3.75,8.25 L3.75,3.75 L3,3.75 C2.586,3.75 2.25,3.414 2.25,3 C2.25,2.586 2.586,2.25 3,2.25 Z M10.25,6 C10.25,5.586 10.586,5.25 11,5.25 L21,5.25 C21.414,5.25 21.75,5.586 21.75,6 C21.75,6.414 21.414,6.75 21,6.75 L11,6.75 C10.586,6.75 10.25,6.414 10.25,6 Z M11,17.25 L21,17.25 C21.414,17.25 21.75,17.586 21.75,18 C21.75,18.414 21.414,18.75 21,18.75 L11,18.75 C10.586,18.75 10.25,18.414 10.25,18 C10.25,17.586 10.586,17.25 11,17.25 Z M10.25,12 C10.25,11.586 10.586,11.25 11,11.25 L21,11.25 C21.414,11.25 21.75,11.586 21.75,12 C21.75,12.414 21.414,12.75 21,12.75 L11,12.75 C10.586,12.75 10.25,12.414 10.25,12 Z" />
  </symbol>
  <symbol id="link" viewBox="0 0 24 24">
    <path fill="currentColor"
      d="M19.986,4.014 C22.338,6.366 22.338,10.179 19.986,12.53 L17.377,15.14 C17.084,15.433 16.609,15.433 16.316,15.14 C16.023,14.847 16.023,14.372 16.316,14.079 L18.926,11.47 C20.691,9.704 20.691,6.84 18.926,5.074 C17.16,3.309 14.296,3.309 12.53,5.074 L9.921,7.684 C9.628,7.977 9.153,7.977 8.86,7.684 C8.567,7.391 8.567,6.916 8.86,6.623 L11.47,4.014 C13.821,1.662 17.634,1.662 19.986,4.014 Z M7.684,9.921 L5.074,12.53 C3.309,14.296 3.309,17.16 5.074,18.926 C6.84,20.691 9.704,20.691 11.47,18.926 L14.079,16.316 C14.372,16.023 14.847,16.023 15.14,16.316 C15.433,16.609 15.433,17.084 15.14,17.377 L12.53,19.986 C10.179,22.338 6.366,22.338 4.014,19.986 C1.662,17.634 1.662,13.821 4.014,11.47 L6.623,8.86 C6.916,8.567 7.391,8.567 7.684,8.86 C7.977,9.153 7.977,9.628 7.684,9.921 Z M15.03,10.03 L10.03,15.03 C9.737,15.323 9.263,15.323 8.97,15.03 C8.677,14.737 8.677,14.263 8.97,13.97 L13.97,8.97 C14.263,8.677 14.737,8.677 15.03,8.97 C15.323,9.263 15.323,9.737 15.03,10.03 Z" />
  </symbol>
  <symbol id="join" viewBox="0 0 24 24">
    <path
      d="M11.943 1.75H12.057C14.248 1.75 15.969 1.75 17.312 1.931C18.689 2.116 19.781 2.503 20.639 3.361C21.497 4.219 21.884 5.311 22.069 6.688C22.25 8.031 22.25 9.752 22.25 11.943V12.057C22.25 14.248 22.25 15.969 22.069 17.312C21.884 18.689 21.497 19.781 20.639 20.639C19.781 21.497 18.689 21.884 17.312 22.069C15.969 22.25 14.248 22.25 12.057 22.25H11.943C9.752 22.25 8.031 22.25 6.688 22.069C5.311 21.884 4.219 21.497 3.361 20.639C2.503 19.781 2.116 18.689 1.931 17.312C1.75 15.969 1.75 14.248 1.75 12.057V11.943C1.75 9.752 1.75 8.031 1.931 6.688C2.116 5.311 2.503 4.219 3.361 3.361C4.219 2.503 5.311 2.116 6.688 1.931C8.031 1.75 9.752 1.75 11.943 1.75ZM4.422 4.422C3.889 4.955 3.58 5.678 3.417 6.888C3.252 8.12 3.25 9.74 3.25 12C3.25 14.26 3.252 15.88 3.417 17.112C3.58 18.322 3.889 19.045 4.422 19.578C4.955 20.111 5.678 20.42 6.888 20.583C8.12 20.748 9.74 20.75 12 20.75C14.26 20.75 15.88 20.748 17.112 20.583C18.322 20.42 19.045 20.111 19.578 19.578C20.111 19.045 20.42 18.322 20.583 17.112C20.748 15.88 20.75 14.26 20.75 12C20.75 9.74 20.748 8.12 20.583 6.888C20.42 5.678 20.111 4.955 19.578 4.422C19.045 3.889 18.322 3.58 17.112 3.417C15.88 3.252 14.26 3.25 12 3.25C9.74 3.25 8.12 3.252 6.888 3.417C5.678 3.58 4.955 3.889 4.422 4.422ZM17.531 7.532L14.377 10.686C14.843 10.742 15.425 10.766 15.975 10.745C16.389 10.73 16.738 11.052 16.753 11.465C16.771 11.876 16.446 12.227 16.032 12.243C15.2 12.275 13.185 12.272 12.457 11.544C11.729 10.815 11.726 8.802 11.757 7.969C11.774 7.555 12.121 7.233 12.535 7.248C12.949 7.265 13.271 7.605 13.256 8.026C13.235 8.574 13.26 9.157 13.314 9.624L16.468 6.47C16.762 6.177 17.236 6.177 17.529 6.47C17.675 6.616 17.749 6.809 17.749 7L17.75 7.003C17.75 7.195 17.676 7.386 17.531 7.532ZM12.245 16.032C12.228 16.446 11.881 16.768 11.467 16.753C11.053 16.736 10.733 16.387 10.746 15.975C10.767 15.426 10.742 14.842 10.688 14.377L7.531 17.534C7.237 17.827 6.763 17.827 6.47 17.534C6.177 17.24 6.177 16.766 6.47 16.473L9.627 13.316C9.16 13.262 8.578 13.236 8.03 13.257C7.617 13.273 7.267 12.95 7.252 12.537C7.236 12.123 7.559 11.775 7.973 11.759C8.805 11.727 10.817 11.73 11.547 12.455L11.548 12.457L11.55 12.458C12.151 13.063 12.257 14.55 12.257 15.514H12.255C12.255 15.713 12.251 15.891 12.245 16.032Z"
      fill="currentColor" />
  </symbol>
  <symbol id="italic" viewBox="0 0 24 24">
    <path fill="currentColor"
      d="M19.281,3.25 C19.695,3.25 20.031,3.586 20.031,4 C20.031,4.414 19.695,4.75 19.281,4.75 L16.745,4.75 L9.495,19.25 L12.281,19.25 C12.696,19.25 13.031,19.586 13.031,20 C13.031,20.414 12.696,20.75 12.281,20.75 L8.303,20.75 C8.288,20.75 8.273,20.75 8.259,20.75 L5.281,20.75 C4.867,20.75 4.531,20.414 4.531,20 C4.531,19.586 4.867,19.25 5.281,19.25 L7.818,19.25 L15.068,4.75 L12.281,4.75 C11.867,4.75 11.531,4.414 11.531,4 C11.531,3.586 11.867,3.25 12.281,3.25 Z" />
  </symbol>
  <symbol id="image" viewBox="0 0 24 24">
    <path fill-rule="evenodd" clip-rule="evenodd"
      d="M3.77 20.87C5.38 22.25 7.59 22.25 12 22.25C16.4 22.25 18.62 22.25 20.23 20.87C20.48 20.66 20.69 20.46 20.87 20.24C22.25 18.62 22.25 16.41 22.25 12C22.25 7.59 22.25 5.38001 20.87 3.76001C20.69 3.55001 20.48 3.34 20.23 3.13C18.62 1.75 16.4 1.75 12 1.75C7.6 1.75 5.38 1.75 3.77 3.13C3.52 3.34 3.31 3.54001 3.13 3.76001C1.75 5.38001 1.75 7.58999 1.75 12V12V12C1.75 16.41 1.75 18.62 3.13 20.24C3.31 20.45 3.52 20.66 3.77 20.87ZM4.74 4.27002C5.93 3.25002 7.96 3.25 12 3.25C16.04 3.25 18.07 3.25002 19.26 4.27002C19.43 4.41002 19.59 4.55998 19.73 4.72998C20.75 5.92998 20.75 7.95999 20.75 11.99C20.75 13.0057 20.75 13.8943 20.7337 14.6746L19.0599 13.0009C18.0999 12.0309 16.3999 12.0309 15.4399 13.0009L13.9999 14.4409L10.5599 11.0009C9.59994 10.0309 7.89994 10.0309 6.93994 11.0009L3.26612 14.6747C3.25 13.8968 3.25 13.0114 3.25 12V12V12C3.25 7.96999 3.25 5.93999 4.27 4.73999C4.41 4.56999 4.57 4.41002 4.74 4.27002ZM3.3731 16.6505C3.42939 16.6185 3.48224 16.5787 3.52994 16.531L7.99994 12.061C8.39994 11.661 9.09994 11.661 9.49994 12.061L14.9699 17.531C15.1199 17.681 15.3099 17.7509 15.4999 17.7509C15.6899 17.7509 15.8799 17.681 16.0299 17.531C16.3199 17.241 16.3199 16.7609 16.0299 16.4709L15.0599 15.5009L16.4999 14.061C16.8999 13.661 17.5999 13.661 17.9999 14.061L20.4699 16.531C20.5174 16.5784 20.5699 16.6181 20.6259 16.65C20.4995 17.828 20.2446 18.6446 19.73 19.25C19.59 19.42 19.43 19.58 19.26 19.72C18.07 20.74 16.04 20.74 12 20.74C7.96 20.74 5.93 20.74 4.74 19.72C4.57 19.58 4.41 19.43 4.27 19.26C3.75406 18.653 3.49909 17.8337 3.3731 16.6505ZM15.5 8.75C16.1904 8.75 16.75 8.19036 16.75 7.5C16.75 6.80964 16.1904 6.25 15.5 6.25C14.8096 6.25 14.25 6.80964 14.25 7.5C14.25 8.19036 14.8096 8.75 15.5 8.75Z"
      fill="currentColor" />
  </symbol>
  <symbol id="h4" viewBox="0 0 24 24">
    <path fill="currentColor"
      d="M4.25,5 L4.25,11.25 L12.75,11.25 L12.75,5 C12.75,4.586 13.086,4.25 13.5,4.25 C13.914,4.25 14.25,4.586 14.25,5 L14.25,19 C14.25,19.414 13.914,19.75 13.5,19.75 C13.086,19.75 12.75,19.414 12.75,19 L12.75,12.75 L4.25,12.75 L4.25,19 C4.25,19.414 3.914,19.75 3.5,19.75 C3.086,19.75 2.75,19.414 2.75,19 L2.75,5 C2.75,4.586 3.086,4.25 3.5,4.25 C3.914,4.25 4.25,4.586 4.25,5 Z M16.5,10.25 C16.914,10.25 17.25,10.586 17.25,11 L17.25,14.25 L19.75,14.25 L19.75,11 C19.75,10.586 20.086,10.25 20.5,10.25 C20.914,10.25 21.25,10.586 21.25,11 L21.25,19 C21.25,19.414 20.914,19.75 20.5,19.75 C20.086,19.75 19.75,19.414 19.75,19 L19.75,15.75 L16.5,15.75 C16.086,15.75 15.75,15.414 15.75,15 L15.75,11 C15.75,10.586 16.086,10.25 16.5,10.25 Z" />
  </symbol>
  <symbol id="h3" viewBox="0 0 24 24">
    <path fill="currentColor"
      d="M4.25,5 L4.25,11.25 L12.75,11.25 L12.75,5 C12.75,4.586 13.086,4.25 13.5,4.25 C13.914,4.25 14.25,4.586 14.25,5 L14.25,19 C14.25,19.414 13.914,19.75 13.5,19.75 C13.086,19.75 12.75,19.414 12.75,19 L12.75,12.75 L4.25,12.75 L4.25,19 C4.25,19.414 3.914,19.75 3.5,19.75 C3.086,19.75 2.75,19.414 2.75,19 L2.75,5 C2.75,4.586 3.086,4.25 3.5,4.25 C3.914,4.25 4.25,4.586 4.25,5 Z M18.5,11.75 C17.81,11.75 17.25,12.31 17.25,13 C17.25,13.414 16.914,13.75 16.5,13.75 C16.086,13.75 15.75,13.414 15.75,13 C15.75,11.481 16.981,10.25 18.5,10.25 C20.019,10.25 21.25,11.481 21.25,13 C21.25,13.788 20.919,14.499 20.388,15 C20.919,15.501 21.25,16.212 21.25,17 C21.25,18.519 20.019,19.75 18.5,19.75 C16.981,19.75 15.75,18.519 15.75,17 C15.75,16.586 16.086,16.25 16.5,16.25 C16.914,16.25 17.25,16.586 17.25,17 C17.25,17.69 17.81,18.25 18.5,18.25 C19.19,18.25 19.75,17.69 19.75,17 C19.75,16.31 19.19,15.75 18.5,15.75 C18.086,15.75 17.75,15.414 17.75,15 C17.75,14.586 18.086,14.25 18.5,14.25 C19.19,14.25 19.75,13.69 19.75,13 C19.75,12.31 19.19,11.75 18.5,11.75 Z" />
  </symbol>
  <symbol id="h2" viewBox="0 0 24 24">
    <path fill="currentColor"
      d="M4.25,5 L4.25,11.25 L12.75,11.25 L12.75,5 C12.75,4.586 13.086,4.25 13.5,4.25 C13.914,4.25 14.25,4.586 14.25,5 L14.25,19 C14.25,19.414 13.914,19.75 13.5,19.75 C13.086,19.75 12.75,19.414 12.75,19 L12.75,12.75 L4.25,12.75 L4.25,19 C4.25,19.414 3.914,19.75 3.5,19.75 C3.086,19.75 2.75,19.414 2.75,19 L2.75,5 C2.75,4.586 3.086,4.25 3.5,4.25 C3.914,4.25 4.25,4.586 4.25,5 Z M15.75,13 C15.75,11.481 16.982,10.25 18.5,10.25 C20.019,10.25 21.25,11.481 21.25,13 L21.25,13.214 C21.25,14.054 20.894,14.855 20.269,15.417 L17.664,17.762 C17.492,17.916 17.396,18.003 17.33,18.074 C17.3,18.105 17.285,18.124 17.278,18.134 L17.274,18.139 L17.273,18.142 L17.272,18.144 L17.271,18.145 C17.271,18.145 17.271,18.147 17.27,18.149 C17.27,18.151 17.269,18.153 17.269,18.155 C17.266,18.167 17.262,18.19 17.259,18.233 L17.257,18.25 L20.5,18.25 C20.915,18.25 21.25,18.586 21.25,19 C21.25,19.414 20.915,19.75 20.5,19.75 L16.5,19.75 C16.086,19.75 15.75,19.414 15.75,19 L15.75,18.691 L15.75,18.605 L15.75,18.605 C15.749,18.256 15.748,17.879 15.902,17.533 C16.056,17.188 16.337,16.937 16.597,16.704 L16.661,16.647 L19.266,14.302 C19.574,14.024 19.75,13.629 19.75,13.214 L19.75,13 C19.75,12.31 19.191,11.75 18.5,11.75 C17.81,11.75 17.25,12.31 17.25,13 L17.25,13.4 C17.25,13.814 16.915,14.15 16.5,14.15 C16.086,14.15 15.75,13.814 15.75,13.4 Z" />
  </symbol>
  <symbol id="float-right" viewBox="0 0 24 24">
    <path fill="currentColor"
      d="M17.333,7.25 C18.232,7.25 18.981,7.25 19.576,7.33 C20.204,7.414 20.77,7.6 21.226,8.055 C21.681,8.511 21.867,9.078 21.951,9.706 C22.031,10.3 22.031,11.05 22.031,11.948 L22.031,12.052 C22.031,12.95 22.031,13.7 21.951,14.295 C21.867,14.922 21.681,15.489 21.226,15.944 C20.77,16.4 20.204,16.586 19.576,16.67 C18.982,16.75 18.234,16.75 17.337,16.75 L17.226,16.75 C16.329,16.75 15.581,16.75 14.987,16.67 C14.359,16.586 13.792,16.4 13.337,15.944 C12.881,15.489 12.696,14.922 12.611,14.295 C12.531,13.7 12.531,12.95 12.531,12.052 L12.531,11.948 C12.531,11.05 12.531,10.3 12.611,9.706 C12.696,9.078 12.881,8.511 13.337,8.055 C13.792,7.6 14.359,7.414 14.987,7.33 C15.582,7.25 16.331,7.25 17.229,7.25 Z M14.397,9.116 C14.267,9.246 14.16,9.444 14.098,9.905 C14.033,10.388 14.031,11.036 14.031,12 C14.031,12.964 14.033,13.612 14.098,14.095 C14.16,14.556 14.267,14.754 14.397,14.884 C14.528,15.014 14.725,15.121 15.187,15.184 C15.67,15.248 16.317,15.25 17.281,15.25 C18.245,15.25 18.893,15.248 19.376,15.184 C19.837,15.121 20.035,15.014 20.165,14.884 C20.295,14.754 20.403,14.556 20.465,14.095 C20.53,13.612 20.531,12.964 20.531,12 C20.531,11.036 20.53,10.388 20.465,9.905 C20.403,9.444 20.295,9.246 20.165,9.116 C20.035,8.986 19.837,8.879 19.376,8.817 C18.893,8.752 18.245,8.75 17.281,8.75 C16.317,8.75 15.67,8.752 15.187,8.817 C14.725,8.879 14.528,8.986 14.397,9.116 Z M2.531,21 C2.531,20.586 2.867,20.25 3.281,20.25 L21.281,20.25 C21.695,20.25 22.031,20.586 22.031,21 C22.031,21.414 21.695,21.75 21.281,21.75 L3.281,21.75 C2.867,21.75 2.531,21.414 2.531,21 Z M2.531,3 C2.531,2.586 2.867,2.25 3.281,2.25 L21.281,2.25 C21.695,2.25 22.031,2.586 22.031,3 C22.031,3.414 21.695,3.75 21.281,3.75 L3.281,3.75 C2.867,3.75 2.531,3.414 2.531,3 Z M3.281,8.25 L9.281,8.25 C9.695,8.25 10.031,8.586 10.031,9 C10.031,9.414 9.695,9.75 9.281,9.75 L3.281,9.75 C2.867,9.75 2.531,9.414 2.531,9 C2.531,8.586 2.867,8.25 3.281,8.25 Z M2.531,15 C2.531,14.586 2.867,14.25 3.281,14.25 L9.281,14.25 C9.695,14.25 10.031,14.586 10.031,15 C10.031,15.414 9.695,15.75 9.281,15.75 L3.281,15.75 C2.867,15.75 2.531,15.414 2.531,15 Z" />
  </symbol>
  <symbol id="float-left" viewBox="0 0 24 24">
    <path fill="currentColor"
      d="M7.229,7.25 L7.333,7.25 C8.232,7.25 8.981,7.25 9.576,7.33 C10.203,7.414 10.77,7.6 11.226,8.055 C11.681,8.511 11.867,9.078 11.951,9.706 C12.031,10.3 12.031,11.05 12.031,11.948 L12.031,12.052 C12.031,12.95 12.031,13.7 11.951,14.295 C11.867,14.922 11.681,15.489 11.226,15.944 C10.77,16.4 10.203,16.586 9.576,16.67 C8.982,16.75 8.234,16.75 7.337,16.75 L7.226,16.75 C6.329,16.75 5.581,16.75 4.987,16.67 C4.359,16.586 3.792,16.4 3.337,15.944 C2.881,15.489 2.696,14.922 2.611,14.295 C2.531,13.7 2.531,12.95 2.531,12.052 L2.531,11.948 C2.531,11.05 2.531,10.3 2.611,9.706 C2.696,9.078 2.881,8.511 3.337,8.055 C3.792,7.6 4.359,7.414 4.987,7.33 C5.582,7.25 6.331,7.25 7.229,7.25 L7.229,7.25 Z M4.397,9.116 C4.267,9.246 4.16,9.444 4.098,9.905 C4.033,10.388 4.031,11.036 4.031,12 C4.031,12.964 4.033,13.612 4.098,14.095 C4.16,14.556 4.267,14.754 4.397,14.884 C4.528,15.014 4.725,15.121 5.187,15.184 C5.67,15.248 6.317,15.25 7.281,15.25 C8.245,15.25 8.893,15.248 9.376,15.184 C9.837,15.121 10.035,15.014 10.165,14.884 C10.295,14.754 10.403,14.556 10.465,14.095 C10.53,13.612 10.531,12.964 10.531,12 C10.531,11.036 10.53,10.388 10.465,9.905 C10.403,9.444 10.295,9.246 10.165,9.116 C10.035,8.986 9.837,8.879 9.376,8.817 C8.893,8.752 8.245,8.75 7.281,8.75 C6.317,8.75 5.67,8.752 5.187,8.817 C4.725,8.879 4.528,8.986 4.397,9.116 Z M2.531,21 C2.531,20.586 2.867,20.25 3.281,20.25 L21.281,20.25 C21.695,20.25 22.031,20.586 22.031,21 C22.031,21.414 21.695,21.75 21.281,21.75 L3.281,21.75 C2.867,21.75 2.531,21.414 2.531,21 Z M2.531,3 C2.531,2.586 2.867,2.25 3.281,2.25 L21.281,2.25 C21.695,2.25 22.031,2.586 22.031,3 C22.031,3.414 21.695,3.75 21.281,3.75 L3.281,3.75 C2.867,3.75 2.531,3.414 2.531,3 Z M15.281,8.25 L21.281,8.25 C21.695,8.25 22.031,8.586 22.031,9 C22.031,9.414 21.695,9.75 21.281,9.75 L15.281,9.75 C14.867,9.75 14.531,9.414 14.531,9 C14.531,8.586 14.867,8.25 15.281,8.25 Z M14.531,15 C14.531,14.586 14.867,14.25 15.281,14.25 L21.281,14.25 C21.695,14.25 22.031,14.586 22.031,15 C22.031,15.414 21.695,15.75 21.281,15.75 L15.281,15.75 C14.867,15.75 14.531,15.414 14.531,15 Z" />
  </symbol>
  <symbol id="clear-format" viewBox="0 0 24 24">
    <path fill="currentColor"
      d="M7.366,3.43 C8.826,3.28 10.641,3.25 12.031,3.25 C13.422,3.25 15.237,3.28 16.697,3.43 L16.787,3.44 C17.299,3.492 17.702,3.533 18.07,3.684 C18.835,3.997 19.44,4.673 19.671,5.467 C19.782,5.849 19.782,6.268 19.781,6.806 L19.781,6.902 C19.781,7.316 19.445,7.652 19.031,7.652 C18.617,7.652 18.281,7.316 18.281,6.902 C18.281,6.222 18.274,6.036 18.231,5.886 C18.126,5.528 17.841,5.211 17.501,5.072 C17.359,5.014 17.188,4.989 16.543,4.923 C15.353,4.8 13.886,4.76 12.616,4.752 L8.992,19.25 L11.031,19.25 C11.446,19.25 11.781,19.586 11.781,20 C11.781,20.414 11.446,20.75 11.031,20.75 L8.071,20.75 C8.045,20.751 8.019,20.751 7.993,20.75 L5.031,20.75 C4.617,20.75 4.281,20.414 4.281,20 C4.281,19.586 4.617,19.25 5.031,19.25 L7.446,19.25 L11.069,4.755 C9.893,4.769 8.594,4.812 7.52,4.923 C6.875,4.989 6.704,5.014 6.562,5.072 C6.222,5.211 5.936,5.528 5.832,5.886 C5.789,6.036 5.781,6.222 5.781,6.902 C5.781,7.316 5.446,7.652 5.031,7.652 C4.617,7.652 4.281,7.316 4.281,6.902 L4.281,6.806 L4.281,6.806 C4.281,6.268 4.281,5.849 4.392,5.467 C4.623,4.673 5.228,3.997 5.993,3.684 C6.361,3.533 6.764,3.492 7.276,3.44 L7.276,3.44 Z M14.562,14.47 L16.531,16.439 L18.501,14.47 C18.794,14.177 19.269,14.177 19.562,14.47 C19.854,14.763 19.854,15.237 19.562,15.53 L17.592,17.5 L19.562,19.47 C19.854,19.763 19.854,20.237 19.562,20.53 C19.269,20.823 18.794,20.823 18.501,20.53 L16.531,18.561 L14.562,20.53 C14.269,20.823 13.794,20.823 13.501,20.53 C13.208,20.237 13.208,19.763 13.501,19.47 L15.471,17.5 L13.501,15.53 C13.208,15.237 13.208,14.763 13.501,14.47 C13.794,14.177 14.269,14.177 14.562,14.47 Z" />
  </symbol>
  <symbol id="check" viewBox="0 0 24 24">
    <path fill="currentColor"
      d="M19.518,5.957 C19.817,6.243 19.829,6.718 19.542,7.018 L9.043,18.018 C8.903,18.164 8.711,18.248 8.509,18.25 C8.307,18.252 8.112,18.173 7.97,18.03 L4.47,14.53 C4.177,14.237 4.177,13.763 4.47,13.47 C4.763,13.177 5.237,13.177 5.53,13.47 L8.488,16.427 L18.458,5.982 C18.743,5.683 19.218,5.671 19.518,5.957 Z" />
  </symbol>
  <symbol id="cell-right-remove" viewBox="0 0 24 24">
    <path
      d="M12.279 1.75H12.393C14.584 1.75 16.305 1.75 17.648 1.931C19.025 2.116 20.117 2.503 20.975 3.361C21.645 4.03 22.03 4.846 22.254 5.834C22.346 6.238 22.093 6.64 21.689 6.731C21.285 6.823 20.883 6.57 20.791 6.166C20.612 5.377 20.335 4.842 19.914 4.422C19.381 3.889 18.658 3.58 17.448 3.417C16.216 3.252 14.596 3.25 12.336 3.25C11.503 3.25 10.757 3.25 10.086 3.259V20.741C10.757 20.75 11.503 20.75 12.336 20.75C14.596 20.75 16.216 20.748 17.448 20.583C18.658 20.42 19.381 20.111 19.914 19.578C20.335 19.158 20.612 18.623 20.791 17.834C20.883 17.43 21.285 17.177 21.689 17.269C22.093 17.36 22.346 17.762 22.254 18.166C22.03 19.154 21.645 19.969 20.975 20.639C20.117 21.497 19.025 21.884 17.648 22.069C16.305 22.25 14.584 22.25 12.393 22.25H12.279C10.088 22.25 8.367 22.25 7.024 22.069C5.647 21.884 4.555 21.497 3.697 20.639C2.839 19.781 2.452 18.689 2.267 17.312C2.086 15.969 2.086 14.248 2.086 12.057V11.943C2.086 9.752 2.086 8.031 2.267 6.688C2.452 5.311 2.839 4.219 3.697 3.361C4.555 2.503 5.647 2.116 7.024 1.931C8.367 1.75 10.088 1.75 12.279 1.75ZM8.586 14.752V9.252H3.603C3.586 10.048 3.586 10.955 3.586 12C3.586 13.046 3.586 13.955 3.603 14.752H8.586ZM22.366 9.532L19.897 12.002L22.366 14.472C22.659 14.764 22.659 15.239 22.366 15.532C22.073 15.825 21.598 15.825 21.306 15.532L18.836 13.063L16.366 15.532C16.073 15.825 15.599 15.825 15.306 15.532C15.013 15.239 15.013 14.764 15.306 14.472L17.775 12.002L15.306 9.532C15.013 9.239 15.013 8.765 15.306 8.472C15.599 8.179 16.073 8.179 16.366 8.472L18.836 10.941L21.306 8.472C21.598 8.179 22.073 8.179 22.366 8.472C22.659 8.765 22.659 9.239 22.366 9.532ZM3.667 7.752H8.586V3.301C8.083 3.325 7.632 3.362 7.224 3.417C6.014 3.58 5.291 3.889 4.758 4.422C4.224 4.955 3.916 5.678 3.753 6.888C3.717 7.157 3.689 7.444 3.667 7.752ZM8.586 16.252H3.667C3.689 16.559 3.717 16.845 3.753 17.112C3.916 18.322 4.224 19.045 4.758 19.578C5.291 20.111 6.014 20.42 7.224 20.583C7.632 20.638 8.083 20.675 8.586 20.699V16.252Z"
      fill="currentColor" />
  </symbol>
  <symbol id="cell-right-add" viewBox="0 0 24 24">
    <path
      d="M1.75 11.721L1.75 11.607C1.75 9.416 1.75 7.695 1.931 6.352C2.116 4.975 2.503 3.883 3.361 3.025C4.219 2.167 5.311 1.78 6.688 1.595C8.031 1.414 9.752 1.414 11.943 1.414L12.057 1.414C14.248 1.414 15.969 1.414 17.312 1.595C18.689 1.78 19.781 2.167 20.639 3.025C21.309 3.694 21.694 4.51 21.918 5.498C22.01 5.902 21.757 6.304 21.353 6.396C20.949 6.487 20.547 6.234 20.455 5.83C20.276 5.041 19.999 4.506 19.578 4.086C19.045 3.553 18.322 3.244 17.112 3.081C15.88 2.916 14.26 2.914 12 2.914C11.167 2.914 10.422 2.914 9.75 2.923L9.75 20.405C10.422 20.414 11.167 20.414 12 20.414C14.26 20.414 15.88 20.412 17.112 20.247C18.322 20.084 19.045 19.776 19.578 19.242C19.999 18.822 20.276 18.287 20.455 17.498C20.547 17.094 20.949 16.841 21.353 16.933C21.757 17.024 22.01 17.426 21.918 17.83C21.694 18.818 21.309 19.634 20.639 20.303C19.781 21.161 18.689 21.548 17.312 21.733C15.969 21.914 14.248 21.914 12.057 21.914L11.943 21.914C9.752 21.914 8.031 21.914 6.688 21.733C5.311 21.548 4.219 21.161 3.361 20.303C2.503 19.445 2.116 18.353 1.931 16.976C1.75 15.633 1.75 13.912 1.75 11.721ZM8.25 14.414L8.25 8.914L3.267 8.914C3.25 9.71 3.25 10.619 3.25 11.664C3.25 12.709 3.25 13.618 3.267 14.414L8.25 14.414ZM13.5 10.914L16.75 10.914L16.75 7.664C16.75 7.25 17.086 6.914 17.5 6.914C17.914 6.914 18.25 7.25 18.25 7.664L18.25 10.914L21.5 10.914C21.914 10.914 22.25 11.25 22.25 11.664C22.25 12.078 21.914 12.414 21.5 12.414L18.25 12.414L18.25 15.664C18.25 16.078 17.914 16.414 17.5 16.414C17.086 16.414 16.75 16.078 16.75 15.664L16.75 12.414L13.5 12.414C13.086 12.414 12.75 12.078 12.75 11.664C12.75 11.25 13.086 10.914 13.5 10.914ZM3.331 7.414L8.25 7.414L8.25 2.965C7.747 2.99 7.296 3.026 6.888 3.081C5.678 3.244 4.955 3.553 4.422 4.086C3.889 4.619 3.58 5.342 3.417 6.552C3.381 6.82 3.353 7.107 3.331 7.414ZM8.25 15.914L3.331 15.914C3.353 16.222 3.381 16.508 3.417 16.776C3.58 17.986 3.889 18.709 4.422 19.242C4.955 19.776 5.678 20.084 6.888 20.247C7.296 20.302 7.747 20.339 8.25 20.363L8.25 15.914Z"
      fill="currentColor" />
  </symbol>
  <symbol id="cell-left-add" viewBox="0 0 24 24">
    <path
      d="M22.25 11.721L22.25 11.607C22.25 9.416 22.25 7.695 22.069 6.352C21.884 4.975 21.497 3.883 20.639 3.025C19.781 2.167 18.689 1.78 17.312 1.595C15.969 1.414 14.248 1.414 12.057 1.414L11.943 1.414C9.752 1.414 8.031 1.414 6.688 1.595C5.311 1.78 4.219 2.167 3.361 3.025C2.691 3.694 2.306 4.51 2.082 5.498C1.99 5.902 2.243 6.304 2.647 6.396C3.051 6.487 3.453 6.234 3.545 5.83C3.724 5.041 4.001 4.506 4.422 4.086C4.955 3.553 5.678 3.244 6.888 3.081C8.12 2.916 9.74 2.914 12 2.914C12.833 2.914 13.578 2.914 14.25 2.923L14.25 20.405C13.578 20.414 12.833 20.414 12 20.414C9.74 20.414 8.12 20.412 6.888 20.247C5.678 20.084 4.955 19.776 4.422 19.242C4.001 18.822 3.724 18.287 3.545 17.498C3.453 17.094 3.051 16.841 2.647 16.933C2.243 17.024 1.99 17.426 2.082 17.83C2.306 18.818 2.691 19.634 3.361 20.303C4.219 21.161 5.311 21.548 6.688 21.733C8.031 21.914 9.752 21.914 11.943 21.914L12.057 21.914C14.248 21.914 15.969 21.914 17.312 21.733C18.689 21.548 19.781 21.161 20.639 20.303C21.497 19.445 21.884 18.353 22.069 16.976C22.25 15.633 22.25 13.912 22.25 11.721ZM15.75 14.414L15.75 8.914L20.733 8.914C20.75 9.71 20.75 10.619 20.75 11.664C20.75 12.709 20.75 13.618 20.733 14.414L15.75 14.414ZM10.5 10.914L7.25 10.914L7.25 7.664C7.25 7.25 6.914 6.914 6.5 6.914C6.086 6.914 5.75 7.25 5.75 7.664L5.75 10.914L2.5 10.914C2.086 10.914 1.75 11.25 1.75 11.664C1.75 12.078 2.086 12.414 2.5 12.414L5.75 12.414L5.75 15.664C5.75 16.078 6.086 16.414 6.5 16.414C6.914 16.414 7.25 16.078 7.25 15.664L7.25 12.414L10.5 12.414C10.914 12.414 11.25 12.078 11.25 11.664C11.25 11.25 10.914 10.914 10.5 10.914ZM20.669 7.414L15.75 7.414L15.75 2.965C16.253 2.99 16.704 3.026 17.112 3.081C18.322 3.244 19.045 3.553 19.578 4.086C20.111 4.619 20.42 5.342 20.583 6.552C20.619 6.82 20.647 7.107 20.669 7.414ZM15.75 15.914L20.669 15.914C20.647 16.222 20.619 16.508 20.583 16.776C20.42 17.986 20.111 18.709 19.578 19.242C19.045 19.776 18.322 20.084 17.112 20.247C16.704 20.302 16.253 20.339 15.75 20.363L15.75 15.914Z"
      fill="currentColor" />
  </symbol>
  <symbol id="bold" viewBox="0 0 24 24">
    <path fill="currentColor"
      d="M8.232,2.25 L12.86,2.25 C15.729,2.25 18.031,4.613 18.031,7.5 C18.031,9.204 17.229,10.725 15.982,11.686 C17.786,12.5 19.031,14.363 19.031,16.5 C19.031,19.373 16.782,21.75 13.948,21.75 L8.229,21.75 C7.565,21.75 6.993,21.75 6.535,21.688 C6.044,21.622 5.573,21.473 5.19,21.091 C4.808,20.709 4.659,20.237 4.593,19.746 C4.531,19.287 4.531,18.714 4.531,18.049 L4.531,5.951 C4.531,5.286 4.531,4.713 4.593,4.254 C4.659,3.763 4.808,3.291 5.19,2.909 C5.573,2.527 6.044,2.378 6.535,2.312 C6.994,2.25 7.567,2.25 8.232,2.25 L8.232,2.25 Z M13.948,12.75 L6.031,12.75 L6.031,18 C6.031,18.728 6.033,19.199 6.079,19.546 C6.123,19.871 6.194,19.973 6.251,20.03 C6.308,20.087 6.41,20.158 6.735,20.202 C7.082,20.248 7.553,20.25 8.281,20.25 L13.948,20.25 C15.901,20.25 17.531,18.598 17.531,16.5 C17.531,14.402 15.901,12.75 13.948,12.75 Z M12.866,11.25 C14.878,11.247 16.531,9.582 16.531,7.5 C16.531,5.416 14.875,3.75 12.86,3.75 L8.281,3.75 C7.553,3.75 7.082,3.752 6.735,3.798 C6.41,3.842 6.308,3.913 6.251,3.97 C6.194,4.027 6.123,4.129 6.079,4.454 C6.033,4.801 6.031,5.272 6.031,6 L6.031,11.25 Z" />
  </symbol>
  <symbol id="align-right" viewBox="0 0 24 24">
    <path fill="currentColor"
      d="M3.281,2.25 L21.281,2.25 C21.695,2.25 22.031,2.586 22.031,3 C22.031,3.414 21.695,3.75 21.281,3.75 L3.281,3.75 C2.867,3.75 2.531,3.414 2.531,3 C2.531,2.586 2.867,2.25 3.281,2.25 Z M2.531,15 C2.531,14.586 2.867,14.25 3.281,14.25 L21.281,14.25 C21.695,14.25 22.031,14.586 22.031,15 C22.031,15.414 21.695,15.75 21.281,15.75 L3.281,15.75 C2.867,15.75 2.531,15.414 2.531,15 Z M13.281,8.25 L21.281,8.25 C21.695,8.25 22.031,8.586 22.031,9 C22.031,9.414 21.695,9.75 21.281,9.75 L13.281,9.75 C12.867,9.75 12.531,9.414 12.531,9 C12.531,8.586 12.867,8.25 13.281,8.25 Z M13.281,20.25 L21.281,20.25 C21.695,20.25 22.031,20.586 22.031,21 C22.031,21.414 21.695,21.75 21.281,21.75 L13.281,21.75 C12.867,21.75 12.531,21.414 12.531,21 C12.531,20.586 12.867,20.25 13.281,20.25 Z" />
  </symbol>
  <symbol id="align-left" viewBox="0 0 24 24">
    <path fill="currentColor"
      d="M3.281,2.25 L21.281,2.25 C21.695,2.25 22.031,2.586 22.031,3 C22.031,3.414 21.695,3.75 21.281,3.75 L3.281,3.75 C2.867,3.75 2.531,3.414 2.531,3 C2.531,2.586 2.867,2.25 3.281,2.25 Z M2.531,15 C2.531,14.586 2.867,14.25 3.281,14.25 L21.281,14.25 C21.695,14.25 22.031,14.586 22.031,15 C22.031,15.414 21.695,15.75 21.281,15.75 L3.281,15.75 C2.867,15.75 2.531,15.414 2.531,15 Z M3.281,8.25 L11.281,8.25 C11.696,8.25 12.031,8.586 12.031,9 C12.031,9.414 11.696,9.75 11.281,9.75 L3.281,9.75 C2.867,9.75 2.531,9.414 2.531,9 C2.531,8.586 2.867,8.25 3.281,8.25 Z M3.281,20.25 L11.281,20.25 C11.696,20.25 12.031,20.586 12.031,21 C12.031,21.414 11.696,21.75 11.281,21.75 L3.281,21.75 C2.867,21.75 2.531,21.414 2.531,21 C2.531,20.586 2.867,20.25 3.281,20.25 Z" />
  </symbol>
  <symbol id="align-center" viewBox="0 0 24 24">
    <path fill="currentColor"
      d="M3.281,2.25 L21.281,2.25 C21.695,2.25 22.031,2.586 22.031,3 C22.031,3.414 21.695,3.75 21.281,3.75 L3.281,3.75 C2.867,3.75 2.531,3.414 2.531,3 C2.531,2.586 2.867,2.25 3.281,2.25 Z M2.531,15 C2.531,14.586 2.867,14.25 3.281,14.25 L21.281,14.25 C21.695,14.25 22.031,14.586 22.031,15 C22.031,15.414 21.695,15.75 21.281,15.75 L3.281,15.75 C2.867,15.75 2.531,15.414 2.531,15 Z M8.281,8.25 L16.281,8.25 C16.695,8.25 17.031,8.586 17.031,9 C17.031,9.414 16.695,9.75 16.281,9.75 L8.281,9.75 C7.867,9.75 7.531,9.414 7.531,9 C7.531,8.586 7.867,8.25 8.281,8.25 Z M8.281,20.25 L16.281,20.25 C16.695,20.25 17.031,20.586 17.031,21 C17.031,21.414 16.695,21.75 16.281,21.75 L8.281,21.75 C7.867,21.75 7.531,21.414 7.531,21 C7.531,20.586 7.867,20.25 8.281,20.25 Z" />
  </symbol>
  <symbol id="qa" viewBox="0 0 24 24">
    <path fill="currentColor"
      d="M4.145,22.247 C4.091,22.247 4.037,22.247 3.982,22.245 L3.904,22.243 C3.221,22.222 2.63,22.203 2.274,21.633 L2.265,21.618 L2.256,21.602 C1.919,21 2.213,20.446 2.62,19.679 L2.62,19.679 L2.638,19.645 C2.971,19.02 3.298,18.155 2.988,17.554 C1.957,16.018 1.387,14.498 1.293,13.035 C1.241,12.166 1.241,11.288 1.293,10.422 C1.586,5.821 5.235,2.123 9.781,1.819 C11.229,1.727 12.763,1.727 14.218,1.819 C18.767,2.124 22.417,5.821 22.709,10.42 C22.761,11.289 22.761,12.167 22.709,13.033 C22.416,17.634 18.767,21.331 14.221,21.636 C12.763,21.738 11.226,21.738 9.777,21.636 C9.198,21.6 8.584,21.46 8.053,21.241 L7.93,21.19 L7.868,21.164 C7.75,21.116 7.634,21.068 7.545,21.035 C7.478,21.081 7.392,21.141 7.305,21.203 L7.252,21.24 L7.19,21.284 C6.318,21.933 5.319,22.249 4.143,22.249 Z M3.759,20.737 C3.801,20.739 3.844,20.74 3.887,20.741 L3.951,20.743 L4.024,20.745 C4.943,20.766 5.65,20.56 6.302,20.074 C6.304,20.073 6.307,20.071 6.309,20.069 C6.311,20.067 6.313,20.066 6.316,20.064 L6.384,20.016 L6.386,20.014 C6.821,19.705 7.039,19.55 7.337,19.504 C7.663,19.455 7.944,19.57 8.504,19.801 L8.626,19.851 C9.003,20.007 9.458,20.11 9.876,20.136 C11.263,20.233 12.728,20.234 14.118,20.136 L14.12,20.136 C17.918,19.882 20.966,16.786 21.212,12.937 C21.26,12.145 21.26,11.304 21.212,10.51 C20.967,6.663 17.918,3.568 14.121,3.313 C12.73,3.226 11.262,3.226 9.878,3.313 C6.083,3.567 3.034,6.662 2.789,10.512 C2.741,11.304 2.741,12.145 2.789,12.939 C2.866,14.14 3.359,15.421 4.252,16.744 C4.264,16.762 4.276,16.781 4.287,16.801 C4.816,17.757 4.707,18.95 3.963,20.347 L3.945,20.38 C3.882,20.498 3.816,20.623 3.759,20.736 Z M12,13.742 C11.586,13.742 11.25,13.406 11.25,12.992 L11.25,12.612 C11.25,11.746 11.766,11.089 12.222,10.509 L12.233,10.495 C12.381,10.306 12.521,10.128 12.626,9.961 C12.705,9.835 12.75,9.681 12.75,9.532 C12.75,9.096 12.414,8.742 12,8.742 C11.586,8.742 11.25,9.096 11.25,9.532 C11.25,9.968 10.914,10.282 10.5,10.282 C10.086,10.282 9.75,9.946 9.75,9.532 C9.75,8.269 10.759,7.242 12,7.242 C13.241,7.242 14.25,8.269 14.25,9.532 C14.25,9.965 14.128,10.389 13.896,10.76 C13.744,10.999 13.57,11.221 13.402,11.435 L13.399,11.439 C13.08,11.846 12.75,12.266 12.75,12.612 L12.75,12.992 C12.75,13.406 12.414,13.742 12,13.742 Z M11.254,14.992 C11.254,14.578 11.585,14.242 11.999,14.242 L12.009,14.242 C12.423,14.242 12.759,14.578 12.759,14.992 C12.759,15.406 12.423,15.742 12.009,15.742 C11.595,15.742 11.254,15.406 11.254,14.992 Z" />
  </symbol>
  <symbol id="accent-block" viewBox="0 0 24 24">
    <rect x="2" y="4" width="20" height="16" rx="1" fill="none" stroke="currentColor" stroke-width="2" />
  </symbol>
</svg>